HIERARCHY
ROOT Hips
{
	OFFSET 0.000000 0.000000 0.000000
	CHANNELS 6 Xposition Yposition Zposition Zrotation Yrotation Xrotation 
	JOINT LowerBack
	{
		OFFSET 0.000000 0.000000 0.000000
		CHANNELS 3 Zrotation Yrotation Xrotation
		JOINT Spine
		{
			OFFSET 0.028270 2.035590 -0.193380
			CHANNELS 3 Zrotation Yrotation Xrotation
			JOINT Spine1
			{
				OFFSET 0.056720 2.048850 -0.042750
				CHANNELS 3 Zrotation Yrotation Xrotation
				JOINT Neck
				{
					OFFSET 0.000000 0.000000 0.000000
					CHANNELS 3 Zrotation Yrotation Xrotation
					JOINT Neck1
					{
						OFFSET -0.054170 1.746240 0.172020
						CHANNELS 3 Zrotation Yrotation Xrotation
						JOINT Head
						{
							OFFSET 0.104070 1.761360 -0.123970
							CHANNELS 3 Zrotation Yrotation Xrotation
							End Site
							{
								OFFSET 0.000000 0.000000 0.000000
							}
						}
					}
				}
				JOINT LeftShoulder
				{
					OFFSET 0.000000 0.000000 0.000000
					CHANNELS 3 Zrotation Yrotation Xrotation
					JOINT LeftArm
					{
						OFFSET 3.362410 1.200890 -0.311210
						CHANNELS 3 Zrotation Yrotation Xrotation
						JOINT LeftForeArm
						{
							OFFSET 4.983000 -0.000000 -0.000000
							CHANNELS 3 Zrotation Yrotation Xrotation
							JOINT LeftHand
							{
								OFFSET 3.483560 -0.000000 -0.000000
								CHANNELS 3 Zrotation Yrotation Xrotation
								JOINT LeftFingerBase
								{
									OFFSET 0.000000 0.000000 0.000000
									CHANNELS 3 Zrotation Yrotation Xrotation
									JOINT LeftHandIndex1
									{
										OFFSET 0.715260 -0.000000 -0.000000
										CHANNELS 3 Zrotation Yrotation Xrotation
										End Site
										{
											OFFSET 0.000000 0.000000 0.000000
										}
									}
								}
								JOINT LThumb
								{
									OFFSET 0.000000 0.000000 0.000000
									CHANNELS 3 Zrotation Yrotation Xrotation
									End Site
									{
										OFFSET 0.000000 0.000000 0.000000
									}
								}
							}
						}
					}
				}
				JOINT RightShoulder
				{
					OFFSET 0.000000 0.000000 0.000000
					CHANNELS 3 Zrotation Yrotation Xrotation
					JOINT RightArm
					{
						OFFSET -3.136600 1.374050 -0.404650
						CHANNELS 3 Zrotation Yrotation Xrotation
						JOINT RightForeArm
						{
							OFFSET -5.241900 -0.000000 -0.000000
							CHANNELS 3 Zrotation Yrotation Xrotation
							JOINT RightHand
							{
								OFFSET -3.444170 -0.000000 -0.000000
								CHANNELS 3 Zrotation Yrotation Xrotation
								JOINT RightFingerBase
								{
									OFFSET 0.000000 0.000000 0.000000
									CHANNELS 3 Zrotation Yrotation Xrotation
									JOINT RightHandIndex1
									{
										OFFSET -0.622530 -0.000000 -0.000000
										CHANNELS 3 Zrotation Yrotation Xrotation
										End Site
										{
											OFFSET 0.000000 0.000000 0.000000
										}
									}
								}
								JOINT RThumb
								{
									OFFSET 0.000000 0.000000 0.000000
									CHANNELS 3 Zrotation Yrotation Xrotation
									End Site
									{
										OFFSET 0.000000 0.000000 0.000000
									}
								}
							}
						}
					}
				}
			}
		}
	}
}
}
MOTION
Frames: 7
Frame Time: 0.008333
1.466428 17.358902 -0.172009 170.304106 -61.118643 -155.851907 -3.298617 -0.140876 -5.730105 -1.699010 -0.160119 -3.418567 -7.989700 -0.045111 2.376241 8.814075 -12.290073 -7.559144 -2.353842 -0.184843 0.017661 0.000000 0.000000 0.000000 -5.284146 20.087404 1.179537 -67.361658 3.868169 -11.313234 -3.325482 -28.127613 0.015833 9.504723 -3.485568 -0.286606 -0.078873 -0.061073 -0.000000 0.000000 0.000000 0.000000 0.000000 0.000000 0.000000 3.846330 -7.238247 -5.047319 86.685995 17.575680 31.828630 -179.103606 65.863845 179.847379 -14.566083 18.363052 -2.555196 0.290933 -1.059294 -0.000000 0.000000 0.000000 0.000000 0.000000 0.000000 0.000000 
1.478984 17.356166 -0.177182 170.145519 -60.641997 -155.672121 -3.350712 -0.076849 -5.758489 -1.713148 -0.093698 -3.420152 -7.981948 0.021040 2.393902 8.713921 -12.262420 -7.596732 -2.342970 -0.183484 0.005216 0.000000 0.000000 0.000000 -5.417270 20.359484 1.169445 -67.388738 3.896277 -11.542664 -3.326248 -28.126347 0.015946 9.451135 -3.449687 -0.281909 -0.078459 -0.062600 -0.000000 0.000000 0.000000 0.000000 0.000000 0.000000 0.000000 3.685069 -7.163796 -5.076863 86.710224 17.725754 31.827001 -179.086465 65.630912 179.846592 -14.575153 18.346791 -2.555194 0.291638 -1.062490 -0.000000 0.000000 0.000000 0.000000 0.000000 0.000000 0.000000 
1.491060 17.352755 -0.180376 170.021439 -60.162200 -155.533834 -3.382654 -0.004195 -5.775756 -1.723937 -0.020119 -3.421132 -7.972067 0.094269 2.408131 8.611602 -12.233262 -7.631285 -2.332774 -0.182213 -0.006487 0.000000 0.000000 0.000000 -5.547213 20.623049 1.159054 -67.440735 3.923779 -11.762352 -3.323837 -28.135399 0.016055 9.401951 -3.419157 -0.277713 -0.077943 -0.064080 -0.000000 0.000000 0.000000 0.000000 0.000000 0.000000 0.000000 3.524580 -7.083688 -5.106603 86.706927 17.889902 31.798531 -179.069729 65.397605 179.845753 -14.588291 18.324457 -2.554996 0.292374 -1.065459 -0.000000 0.000000 0.000000 0.000000 0.000000 0.000000 0.000000 
1.502767 17.348746 -0.181823 169.926947 -59.676204 -155.433964 -3.397710 0.077058 -5.780898 -1.732139 0.060895 -3.421455 -7.960669 0.174872 2.418411 8.509653 -12.201119 -7.661671 -2.323699 -0.181083 -0.017146 0.000000 0.000000 0.000000 -5.669844 20.874806 1.148689 -67.518933 3.954565 -11.975720 -3.318039 -28.154850 0.016159 9.359084 -3.392584 -0.274118 -0.077308 -0.065514 -0.000000 0.000000 0.000000 0.000000 0.000000 0.000000 0.000000 3.368691 -6.996283 -5.136086 86.675843 18.067930 31.744635 -179.053264 65.162561 179.844833 -14.609916 18.295426 -2.555399 0.293320 -1.068237 -0.000000 0.000000 0.000000 0.000000 0.000000 0.000000 0.000000 
1.514113 17.344258 -0.181596 169.864814 -59.183119 -155.375137 -3.397883 0.166391 -5.773306 -1.738207 0.149019 -3.420982 -7.948282 0.262539 2.424848 8.410326 -12.164133 -7.687421 -2.316160 -0.180130 -0.026634 0.000000 0.000000 0.000000 -5.781959 21.115559 1.138630 -67.623257 3.989826 -12.184389 -3.308926 -28.182620 0.016262 9.323933 -3.369362 -0.271121 -0.076558 -0.066899 -0.000000 0.000000 0.000000 0.000000 0.000000 0.000000 0.000000 3.221969 -6.899835 -5.165117 86.616543 18.260390 31.667930 -179.037312 64.929544 179.843825 -14.643486 18.260619 -2.557102 0.294612 -1.070814 -0.000000 0.000000 0.000000 0.000000 0.000000 0.000000 0.000000 
1.525202 17.339396 -0.180176 169.826152 -58.681172 -155.346938 -3.389618 0.262280 -5.755414 -1.743412 0.243212 -3.420038 -7.935722 0.356218 2.427850 8.316923 -12.121372 -7.708004 -2.310612 -0.179404 -0.034782 0.000000 0.000000 0.000000 -5.878880 21.343940 1.129166 -67.751856 4.033316 -12.388066 -3.296749 -28.219953 0.016360 9.296781 -3.348291 -0.268425 -0.075709 -0.068236 -0.000000 0.000000 0.000000 0.000000 0.000000 0.000000 0.000000 3.089790 -6.794066 -5.193220 86.531921 18.467844 31.572782 -179.022231 64.699609 179.842742 -14.689801 18.221085 -2.560402 0.296353 -1.073249 -0.000000 0.000000 0.000000 0.000000 0.000000 0.000000 0.000000 
1.536214 17.334327 -0.177831 169.806701 -58.170152 -155.344272 -3.377361 0.362542 -5.729310 -1.748492 0.341618 -3.418802 -7.923471 0.454031 2.427893 8.231780 -12.071076 -7.723284 -2.307481 -0.178937 -0.041534 0.000000 0.000000 0.000000 -5.959214 21.561252 1.120675 -67.901330 4.086259 -12.586422 -3.281977 -28.267140 0.016454 9.276110 -3.328671 -0.266130 -0.074779 -0.069524 -0.000000 0.000000 0.000000 0.000000 0.000000 0.000000 0.000000 2.977061 -6.678017 -5.220251 86.424669 18.692361 31.464998 -179.008754 64.477132 179.841615 -14.748027 18.179478 -2.565500 0.298578 -1.075588 -0.000000 0.000000 0.000000 0.000000 0.000000 0.000000 0.000000 
